HIERARCHY
ROOT Hips
{
	OFFSET -13.091600 -28.302996 44.698402
	CHANNELS 6 Xposition Yposition Zposition Zrotation Xrotation Yrotation
	JOINT Chest
	{
		OFFSET -0.673000 0.623899 5.369202
		CHANNELS 6 Xposition Yposition Zposition Zrotation Xrotation Yrotation
		JOINT Chest2
		{
			OFFSET 0.000000 0.000000 4.415001
			CHANNELS 6 Xposition Yposition Zposition Zrotation Xrotation Yrotation
			JOINT Neck
			{
				OFFSET 0.000000 0.000002 10.273300
				CHANNELS 6 Xposition Yposition Zposition Zrotation Xrotation Yrotation
				JOINT Head
				{
					OFFSET 0.000000 0.000000 2.173897
					CHANNELS 6 Xposition Yposition Zposition Zrotation Xrotation Yrotation
					End Site
					{
						OFFSET 0.000000 0.000000 9.961800
					}
				}
			}
			JOINT LeftCollar
			{
				OFFSET 2.359900 -0.565201 5.928101
				CHANNELS 6 Xposition Yposition Zposition Zrotation Xrotation Yrotation
				JOINT LeftShoulder
				{
					OFFSET 5.443700 0.000000 0.000000
					CHANNELS 6 Xposition Yposition Zposition Zrotation Xrotation Yrotation
					JOINT LeftElbow
					{
						OFFSET 0.000000 0.000000 -10.615799
						CHANNELS 6 Xposition Yposition Zposition Zrotation Xrotation Yrotation
						JOINT LeftWrist
						{
							OFFSET 0.000000 -0.000002 -13.110302
							CHANNELS 6 Xposition Yposition Zposition Zrotation Xrotation Yrotation
							End Site
							{
								OFFSET 0.000000 0.000000 -2.173901
							}
						}
					}
				}
			}
			JOINT RightCollar
			{
				OFFSET -2.636600 -1.718800 6.889698
				CHANNELS 6 Xposition Yposition Zposition Zrotation Xrotation Yrotation
				JOINT RightShoulder
				{
					OFFSET -4.139101 0.000000 0.000000
					CHANNELS 6 Xposition Yposition Zposition Zrotation Xrotation Yrotation
					JOINT RightElbow
					{
						OFFSET 0.000000 0.000000 -10.471802
						CHANNELS 6 Xposition Yposition Zposition Zrotation Xrotation Yrotation
						JOINT RightWrist
						{
							OFFSET 0.000000 0.000000 -12.281898
							CHANNELS 6 Xposition Yposition Zposition Zrotation Xrotation Yrotation
							End Site
							{
								OFFSET 0.000000 -0.000002 -2.173901
							}
						}
					}
				}
			}
		}
	}
	JOINT LeftHip
	{
		OFFSET 2.273400 0.176701 -2.518002
		CHANNELS 6 Xposition Yposition Zposition Zrotation Xrotation Yrotation
		JOINT LeftKnee
		{
			OFFSET 0.000000 -0.000002 -20.456402
			CHANNELS 6 Xposition Yposition Zposition Zrotation Xrotation Yrotation
			JOINT LeftAnkle
			{
				OFFSET 0.000000 -0.000002 -16.635300
				CHANNELS 6 Xposition Yposition Zposition Zrotation Xrotation Yrotation
				End Site
				{
					OFFSET 0.000000 -8.812399 0.000001
				}
			}
		}
	}
	JOINT RightHip
	{
		OFFSET -1.914800 0.018101 -2.699299
		CHANNELS 6 Xposition Yposition Zposition Zrotation Xrotation Yrotation
		JOINT RightKnee
		{
			OFFSET 0.000000 -0.000002 -20.148901
			CHANNELS 6 Xposition Yposition Zposition Zrotation Xrotation Yrotation
			JOINT RightAnkle
			{
				OFFSET 0.000000 -0.000002 -16.838301
				CHANNELS 6 Xposition Yposition Zposition Zrotation Xrotation Yrotation
				End Site
				{
					OFFSET 0.000000 -8.328398 0.000001
				}
			}
		}
	}
}
MOTION
Frames: 10
Frame Time: 0.041667
-50.790001 -47.470100 46.042107 3224.624323 -1.700247 -4.370276 -0.673000 0.623891 5.369205 15.425357 4.050725 -11.789076 -0.000002 -0.000008 4.415007 -5.028584 -2.766668 -0.418912 -0.000006 -0.000005 10.273295 -45.906542 21.870858 24.491668 0.000001 -0.000006 2.173890 -1.605948 1.747941 -5.992305 2.359900 -0.565199 5.928095 18.612385 -6.765939 -33.227996 5.443698 -0.000004 0.000005 -70.575197 330.195305 -151.100792 0.000006 -0.000004 -10.615791 925.092187 -155.413878 184.087532 0.000011 -0.000007 -13.110295 -2236.266226 182.803142 -543.467279 -2.636603 -1.718801 6.889686 162.896078 -151.591281 218.166173 -4.139100 0.000011 -0.000001 -259.018067 -46.194922 149.914347 0.000002 0.000001 -10.471793 -346.407496 -14.933491 -719.226569 0.000002 0.000001 -12.281893 227.455176 182.916250 171.899920 2.273402 0.176700 -2.518004 -531.235940 -173.206248 -167.972424 -0.000004 -0.000003 -20.456400 1257.490719 155.540701 -172.448124 -0.000008 -0.000002 -16.635298 -689.680482 12.402360 17.279880 -1.914800 0.018099 -2.699302 206.660651 160.659300 184.555605 -0.000004 -0.000009 -20.148907 -909.357671 -205.789420 153.083281 0.000004 -0.000001 -16.838308 1024.989878 11.913929 -10.268941
-50.812500 -47.562599 46.049805 3224.585856 -1.780666 -4.374818 -0.673002 0.623894 5.369198 15.437751 4.003561 -11.807143 -0.000009 -0.000002 4.415003 -5.084266 -2.743390 -0.421377 0.000003 -0.000007 10.273317 -45.861066 22.019806 24.596922 -0.000003 -0.000004 2.173893 -1.656497 1.810249 -5.980344 2.359897 -0.565207 5.928114 18.589670 -6.739243 -33.268960 5.443693 0.000002 0.000001 -70.778935 330.230549 -151.157960 0.000001 -0.000005 -10.615807 924.869686 -155.497466 184.141900 -0.000000 -0.000004 -13.110294 -2236.255297 182.800492 -543.488042 -2.636601 -1.718804 6.889719 163.667629 -152.439290 218.568663 -4.139096 0.000009 0.000005 -260.972977 -45.684697 149.396441 -0.000000 -0.000004 -10.471801 -345.462499 -14.720731 -719.054886 0.000003 0.000001 -12.281897 227.655546 182.305194 173.123521 2.273401 0.176704 -2.518001 -531.435545 -173.422137 -168.015414 -0.000002 -0.000006 -20.456404 1257.672238 155.618825 -172.465214 -0.000010 0.000002 -16.635302 -689.660812 12.357235 17.292651 -1.914800 0.018100 -2.699302 207.184636 160.320782 184.203782 -0.000004 -0.000001 -20.148895 -909.726501 -205.332343 153.303692 -0.000003 -0.000001 -16.838306 1024.857099 11.927483 -10.414446
-50.834198 -47.653000 46.057808 3224.561376 -1.865676 -4.382158 -0.673001 0.623891 5.369204 15.438101 3.974160 -11.828489 -0.000001 -0.000005 4.415003 -5.139106 -2.728483 -0.424508 -0.000005 0.000000 10.273297 -45.839534 22.123568 24.699282 -0.000002 -0.000005 2.173897 -1.670250 1.897988 -5.933225 2.359894 -0.565206 5.928099 18.562849 -6.717532 -33.277453 5.443692 -0.000003 0.000003 -70.866232 330.365458 -151.173957 0.000006 -0.000002 -10.615798 924.760403 -155.593922 184.192430 0.000006 -0.000010 -13.110290 -2236.231474 182.794850 -543.504489 -2.636606 -1.718804 6.889689 164.260025 -153.073063 218.876431 -4.139102 -0.000011 0.000000 -262.443107 -45.282027 148.973638 -0.000002 -0.000001 -10.471802 -344.919526 -14.541261 -718.975273 0.000003 0.000003 -12.281882 227.431420 181.932962 173.891726 2.273399 0.176695 -2.518004 -531.658537 -173.639309 -168.057296 0.000003 -0.000004 -20.456402 1257.843266 155.697017 -172.472986 0.000000 -0.000004 -16.635302 -689.629830 12.314577 17.313112 -1.914797 0.018098 -2.699297 207.713293 159.968781 183.844773 -0.000002 -0.000001 -20.148897 -910.174452 -204.869721 153.519416 -0.000004 -0.000000 -16.838303 1024.742789 11.958800 -10.478306
-50.853600 -47.741295 46.066307 3224.512418 -1.938404 -4.394890 -0.673006 0.623893 5.369221 15.461289 3.922904 -11.861785 -0.000004 -0.000003 4.415012 -5.190195 -2.713182 -0.426492 0.000000 0.000003 10.273294 -45.839500 22.209627 24.839684 -0.000006 -0.000006 2.173911 -1.672130 1.939636 -5.893518 2.359898 -0.565198 5.928098 18.505680 -6.614551 -33.175632 5.443695 -0.000000 -0.000005 -71.068822 330.559381 -151.356951 0.000009 -0.000007 -10.615811 924.614401 -155.754432 184.268381 -0.000000 -0.000008 -13.110301 -2236.276717 182.787842 -543.511648 -2.636607 -1.718797 6.889701 164.659837 -153.553676 219.082648 -4.139102 -0.000006 -0.000005 -263.396191 -44.965109 148.706879 0.000004 -0.000005 -10.471795 -344.669323 -14.389076 -718.952050 0.000006 -0.000005 -12.281900 227.489136 181.647843 174.497851 2.273400 0.176701 -2.517986 -531.841914 -173.841784 -168.083155 -0.000001 -0.000003 -20.456402 1258.003147 155.764213 -172.496209 -0.000003 0.000001 -16.635296 -689.605624 12.278547 17.343394 -1.914804 0.018097 -2.699290 208.186707 159.642572 183.524519 0.000001 -0.000001 -20.148901 -910.576177 -204.432958 153.720579 0.000002 -0.000002 -16.838305 1024.643123 11.995676 -10.504822
-50.874199 -47.825497 46.075207 3224.448159 -2.027159 -4.425318 -0.673011 0.623899 5.369218 15.498683 3.901375 -11.875851 0.000002 -0.000002 4.415013 -5.241409 -2.697626 -0.429029 -0.000007 0.000003 10.273302 -45.873849 22.276368 25.000868 -0.000001 -0.000005 2.173895 -1.697995 1.976685 -5.855715 2.359899 -0.565200 5.928102 18.474931 -6.554528 -33.022913 5.443702 0.000002 0.000002 -71.211791 330.857014 -151.471534 0.000000 -0.000008 -10.615808 924.450149 -155.902073 184.262699 0.000003 -0.000006 -13.110296 -2236.221638 182.778772 -543.523614 -2.636603 -1.718801 6.889714 164.927608 -153.911114 219.171222 -4.139097 -0.000015 0.000003 -263.926760 -44.690867 148.622184 -0.000007 0.000001 -10.471786 -344.587442 -14.252818 -718.988114 0.000003 0.000004 -12.281902 228.149492 181.300992 175.031329 2.273398 0.176702 -2.517992 -532.002232 -174.056047 -168.087991 -0.000008 -0.000006 -20.456400 1258.138330 155.823977 -172.524254 -0.000003 -0.000004 -16.635302 -689.570817 12.247098 17.381317 -1.914804 0.018102 -2.699287 208.591136 159.320501 183.244099 -0.000003 -0.000006 -20.148903 -910.966427 -204.052448 153.927220 -0.000003 -0.000002 -16.838306 1024.595803 12.051946 -10.489887
-50.895699 -47.904198 46.085106 3224.386742 -2.096897 -4.428015 -0.672997 0.623888 5.369204 15.538952 3.869137 -11.912665 -0.000001 -0.000006 4.415002 -5.313935 -2.680812 -0.432438 -0.000003 -0.000009 10.273303 -45.911937 22.316822 25.149593 0.000003 -0.000003 2.173889 -1.701319 2.037404 -5.847511 2.359897 -0.565209 5.928102 18.478399 -6.532343 -32.828328 5.443701 0.000001 -0.000005 -71.329906 331.245132 -151.551625 0.000008 -0.000003 -10.615814 924.191694 -156.056176 184.154153 0.000003 -0.000005 -13.110283 -2236.034327 182.766300 -543.549241 -2.636599 -1.718808 6.889709 165.074730 -154.086704 219.217981 -4.139093 -0.000015 0.000005 -264.005827 -44.555322 148.662592 0.000000 -0.000002 -10.471792 -344.342730 -14.118728 -718.970629 -0.000002 -0.000001 -12.281888 228.264581 181.148911 175.267845 2.273406 0.176697 -2.518002 -532.136213 -174.225517 -168.112785 -0.000005 -0.000005 -20.456402 1258.299523 155.843757 -172.572215 -0.000001 -0.000008 -16.635298 -689.576664 12.217711 17.389645 -1.914798 0.018090 -2.699310 208.911854 159.062893 182.988800 -0.000003 0.000000 -20.148901 -911.355583 -203.739106 154.137302 -0.000001 -0.000004 -16.838297 1024.596896 12.130793 -10.394594
-50.917900 -47.979996 46.095108 3224.286857 -2.147526 -4.443079 -0.673007 0.623896 5.369211 15.621910 3.849147 -11.923764 -0.000006 -0.000003 4.415010 -5.383983 -2.678720 -0.437372 0.000003 -0.000002 10.273302 -45.943076 22.330895 25.262814 -0.000011 -0.000007 2.173904 -1.681114 2.097788 -5.814487 2.359900 -0.565200 5.928102 16.285524 -8.087537 -32.820900 5.443708 -0.000003 0.000003 -69.144717 332.608329 -148.955894 0.000001 0.000000 -10.615785 923.821225 -156.177821 183.938019 0.000008 -0.000002 -13.110285 -2235.664076 182.752407 -543.587053 -2.636596 -1.718793 6.889709 165.015676 -154.077306 219.156564 -4.139091 -0.000008 -0.000005 -263.566126 -44.521611 148.845695 -0.000002 0.000000 -10.471787 -344.000265 -13.996224 -718.908064 0.000003 -0.000002 -12.281893 228.157360 181.085909 175.301736 2.273392 0.176702 -2.517996 -532.233748 -174.368569 -168.122292 -0.000006 -0.000003 -20.456400 1258.449568 155.850355 -172.614931 -0.000011 -0.000002 -16.635302 -689.569123 12.186447 17.393423 -1.914805 0.018104 -2.699296 209.184543 158.840325 182.788826 -0.000006 -0.000003 -20.148895 -911.555790 -203.449410 154.293782 -0.000006 -0.000002 -16.838306 1024.589793 12.172995 -10.459402
-50.941795 -48.050095 46.103508 3224.159215 -2.197270 -4.472387 -0.673005 0.623903 5.369212 15.736437 3.864734 -11.901903 -0.000000 -0.000009 4.415007 -5.462694 -2.689181 -0.445118 0.000000 -0.000001 10.273310 -45.933825 22.379228 25.317927 -0.000007 -0.000005 2.173893 -1.695038 2.131969 -5.783293 2.359900 -0.565197 5.928101 16.406468 -7.993982 -32.616964 5.443690 -0.000000 -0.000009 -69.308245 332.965985 -149.130009 0.000003 0.000001 -10.615800 923.380814 -156.273430 183.674756 0.000007 -0.000005 -13.110280 -2235.263226 182.741943 -543.627815 -2.636604 -1.718801 6.889708 164.899399 -154.081309 219.009360 -4.139094 -0.000010 0.000001 -263.160085 -44.434660 149.049863 -0.000001 -0.000005 -10.471806 -343.680339 -13.908248 -718.848833 -0.000001 -0.000003 -12.281889 228.005703 181.052551 175.299073 2.273403 0.176709 -2.517994 -532.288226 -174.499531 -168.111337 -0.000004 -0.000008 -20.456402 1258.575025 155.838580 -172.665994 -0.000009 0.000002 -16.635300 -689.549671 12.155280 17.401966 -1.914803 0.018103 -2.699294 209.358084 158.653287 182.648274 0.000000 -0.000007 -20.148897 -911.602454 -203.223331 154.439620 0.000002 -0.000004 -16.838306 1024.556461 12.196208 -10.524465
-50.968796 -48.113895 46.110104 3224.060860 -2.219037 -4.462957 -0.673001 0.623897 5.369207 15.828323 3.856119 -11.892674 0.000005 -0.000008 4.415004 -5.563544 -2.695582 -0.454459 0.000001 0.000010 10.273304 -45.893277 22.448496 25.342010 -0.000006 -0.000002 2.173902 -1.742680 2.183636 -5.769230 2.359905 -0.565198 5.928100 16.549400 -7.958699 -32.502364 5.443698 -0.000003 -0.000010 -69.310499 333.305254 -149.131375 0.000001 0.000003 -10.615782 922.988161 -156.315682 183.348956 0.000003 0.000001 -13.110297 -2234.788938 182.737518 -543.675299 -2.636600 -1.718790 6.889701 164.822901 -154.081295 218.905432 -4.139091 0.000004 -0.000001 -262.794370 -44.386469 149.254469 0.000001 -0.000001 -10.471793 -343.313858 -13.814110 -718.794956 0.000004 0.000002 -12.281886 227.803515 181.042797 175.274853 2.273405 0.176703 -2.518000 -532.379368 -174.584635 -168.138685 -0.000003 -0.000005 -20.456396 1258.665512 155.830875 -172.695514 -0.000006 -0.000003 -16.635300 -689.492133 12.123650 17.412896 -1.914798 0.018102 -2.699298 209.516381 158.522243 182.497040 -0.000009 -0.000008 -20.148899 -911.643653 -203.020884 154.549983 0.000006 -0.000002 -16.838305 1024.499743 12.214465 -10.543501
-50.996597 -48.174194 46.114399 3223.954637 -2.226667 -4.433167 -0.673004 0.623902 5.369211 15.932231 3.841189 -11.899899 0.000004 -0.000005 4.415000 -5.692839 -2.702007 -0.465395 -0.000005 -0.000001 10.273304 -45.806039 22.530351 25.328390 0.000002 -0.000010 2.173895 -1.806436 2.245340 -5.742855 2.359897 -0.565206 5.928104 16.682047 -7.916467 -32.469770 5.443706 0.000008 -0.000002 -69.379334 333.544638 -149.196972 0.000005 -0.000001 -10.615800 922.745224 -156.452641 183.160293 0.000004 -0.000006 -13.110289 -2234.542832 182.730810 -543.700543 -2.636604 -1.718803 6.889705 164.748575 -154.012228 218.854410 -4.139105 0.000001 0.000001 -262.487175 -44.384745 149.332852 0.000002 0.000000 -10.471795 -342.829488 -13.728432 -718.675783 0.000004 -0.000004 -12.281894 227.433428 181.034191 175.245865 2.273394 0.176706 -2.518003 -532.469964 -174.647582 -168.217655 -0.000002 -0.000004 -20.456402 1258.726819 155.811997 -172.683124 -0.000007 -0.000005 -16.635303 -689.417110 12.079499 17.436896 -1.914803 0.018105 -2.699295 209.633614 158.420623 182.362144 0.000001 0.000000 -20.148899 -911.570434 -202.825131 154.616495 -0.000000 -0.000002 -16.838306 1024.399422 12.204308 -10.580084
